HIERARCHY
ROOT Hips
{
	OFFSET 0.000000 0.000000 0.000000
	CHANNELS 6 Xposition Yposition Zposition Zrotation Yrotation Xrotation 
	JOINT LHipJoint
	{
		OFFSET 0.000000 0.000000 0.000000
		CHANNELS 3 Zrotation Yrotation Xrotation
		JOINT LeftUpLeg
		{
			OFFSET 1.363060 -1.794630 0.839290
			CHANNELS 3 Zrotation Yrotation Xrotation
			JOINT LeftLeg
			{
				OFFSET 2.448110 -6.726130 0.000000
				CHANNELS 3 Zrotation Yrotation Xrotation
				JOINT LeftFoot
				{
					OFFSET 2.562200 -7.039590 0.000000
					CHANNELS 3 Zrotation Yrotation Xrotation
					JOINT LeftToeBase
					{
						OFFSET 0.157640 -0.433110 2.322550
						CHANNELS 3 Zrotation Yrotation Xrotation
						End Site
						{
							OFFSET 0.000000 0.000000 0.000000
						}
					}
				}
			}
		}
	}
	JOINT RHipJoint
	{
		OFFSET 0.000000 0.000000 0.000000
		CHANNELS 3 Zrotation Yrotation Xrotation
		JOINT RightUpLeg
		{
			OFFSET -1.305520 -1.794630 0.839290
			CHANNELS 3 Zrotation Yrotation Xrotation
			JOINT RightLeg
			{
				OFFSET -2.542530 -6.985550 0.000000
				CHANNELS 3 Zrotation Yrotation Xrotation
				JOINT RightFoot
				{
					OFFSET -2.568260 -7.056230 0.000000
					CHANNELS 3 Zrotation Yrotation Xrotation
					JOINT RightToeBase
					{
						OFFSET -0.164730 -0.452590 2.363150
						CHANNELS 3 Zrotation Yrotation Xrotation
						End Site
						{
							OFFSET 0.000000 0.000000 0.000000
						}
					}
				}
			}
		}
	}
}
MOTION
Frames: 11
Frame Time: 0.008333
4.759006 17.293817 0.967139 -177.034969 -68.103102 -173.916878 -12.161731 2.460090 -0.087483 -7.286187 29.341120 -12.636535 -2.679544 -1.733740 1.280889 1.714226 12.986011 -4.386197 0.686700 -0.000000 -26.265300 8.206105 -3.542252 6.383487 4.968040 5.854828 -13.484408 3.392764 1.250859 0.895195 1.217634 8.593622 0.122545 0.812199 -0.000000 -29.949400
4.746841 17.293880 0.973435 -177.147994 -66.726453 -173.399605 -12.187474 2.450572 -0.152657 -7.685923 29.983288 -13.177590 -2.727865 -1.762149 1.346607 1.783443 13.428875 -4.539413 0.678800 0.000000 -26.039400 8.139311 -3.570144 6.624148 4.820875 6.493656 -14.315142 3.440974 1.242351 1.003257 1.329366 9.364546 0.449958 0.956300 0.000000 -30.422700
4.737169 17.293794 0.979934 -177.251648 -65.347409 -172.884583 -12.209123 2.443598 -0.223139 -8.110250 30.602372 -13.732842 -2.777915 -1.785735 1.403814 1.852971 13.864364 -4.685595 0.671000 0.000000 -25.798400 8.073511 -3.586227 6.856718 4.658182 7.148639 -15.140006 3.485430 1.236434 1.090546 1.436236 10.105397 0.788205 1.105100 -0.000000 -30.870100
4.730428 17.293610 0.986891 -177.346501 -63.979199 -172.382320 -12.226439 2.438901 -0.302912 -8.549061 31.203076 -14.289423 -2.829614 -1.803171 1.456184 1.920697 14.280488 -4.822484 0.663100 0.000000 -25.550200 8.010415 -3.589310 7.075254 4.481263 7.809897 -15.942337 3.525500 1.232300 1.159878 1.537384 10.811472 1.131805 1.257200 0.000000 -31.274200
4.726660 17.293395 0.994189 -177.434531 -62.634783 -171.889980 -12.237760 2.437052 -0.390940 -9.003391 31.781662 -14.850611 -2.883327 -1.814193 1.508127 1.985666 14.671307 -4.949315 0.655301 0.000000 -25.301200 7.951723 -3.579541 7.280012 4.288148 8.475328 -16.721998 3.560314 1.229999 1.213106 1.631553 11.471572 1.475324 1.409800 -0.000000 -31.626701
4.726035 17.293177 1.001922 -177.515427 -61.327990 -171.413858 -12.242176 2.438221 -0.488516 -9.466718 32.341025 -15.412018 -2.939319 -1.817991 1.564036 2.046076 15.026897 -5.063936 0.647600 0.000000 -25.063400 7.899181 -3.556680 7.468298 4.080900 9.137067 -17.468325 3.589435 1.229585 1.248566 1.717827 12.077393 1.815517 1.560300 -0.000001 -31.920000
4.728900 17.293029 1.010574 -177.580887 -60.072080 -170.978491 -12.241025 2.441345 -0.601799 -9.917188 32.895636 -15.953410 -2.997452 -1.812863 1.626562 2.098648 15.330497 -5.162294 0.640000 -0.000000 -24.855001 7.853772 -3.519463 7.631831 3.870352 9.780151 -18.152013 3.613450 1.231090 1.259301 1.795610 12.625549 2.152829 1.707000 -0.000000 -32.148000
4.734593 17.293031 1.019392 -177.640512 -58.883446 -170.553333 -12.229740 2.449303 -0.718060 -10.379368 33.422154 -16.510692 -3.058972 -1.800540 1.701644 2.144847 15.586987 -5.247816 0.632900 0.000000 -24.674700 7.817459 -3.470732 7.781439 3.648412 10.406118 -18.803487 3.631654 1.236372 1.244897 1.864081 13.099643 2.482730 1.845500 0.000000 -32.319500
4.743643 17.293223 1.029348 -177.678116 -57.776115 -170.184005 -12.213125 2.459799 -0.848295 -10.811144 33.945182 -17.040825 -3.122657 -1.778325 1.788224 2.180164 15.774751 -5.314199 0.626200 0.000000 -24.546900 7.789913 -3.407982 7.901406 3.438144 10.989158 -19.368937 3.646141 1.245412 1.192962 1.923104 13.502833 2.810816 1.975400 -0.000000 -32.440000
4.755506 17.293677 1.040319 -177.692624 -56.767255 -169.865139 -12.190941 2.474123 -0.985748 -11.213229 34.452451 -17.551104 -3.188364 -1.746924 1.886513 2.204648 15.892851 -5.362020 0.620300 0.000000 -24.474100 7.771536 -3.332575 7.993444 3.244174 11.518204 -19.850226 3.657872 1.259743 1.098537 1.972487 13.827977 3.137593 2.094100 -0.000000 -32.526500
4.770135 17.294476 1.052611 -177.681059 -55.873584 -169.609879 -12.165558 2.491951 -1.128938 -11.569002 34.941267 -18.027341 -3.254946 -1.706239 1.992995 2.217214 15.935834 -5.389710 0.615200 0.000000 -24.459600 7.761907 -3.244519 8.052357 3.080781 11.974004 -20.228839 3.668684 1.280128 0.956110 2.012411 14.075105 3.465667 2.200500 0.000000 -32.597100
